<?xml version="1.0" encoding="UTF-8"?>
<!DOCTYPE svg PUBLIC "-//W3C//DTD SVG 1.1//EN" "http://www.w3.org/Graphics/SVG/1.1/DTD/svg11.dtd">
<!-- Creator: CorelDRAW 2021 (64-Bit) -->
<svg xmlns="http://www.w3.org/2000/svg" xml:space="preserve" width="7.45893in" height="1.97102in" version="1.1" style="shape-rendering:geometricPrecision; text-rendering:geometricPrecision; image-rendering:optimizeQuality; fill-rule:evenodd; clip-rule:evenodd"
viewBox="0 0 4368.66 1154.41"
 xmlns:xlink="http://www.w3.org/1999/xlink"
 xmlns:xodm="http://www.corel.com/coreldraw/odm/2003">
 <defs>
  <style type="text/css">
   <![CDATA[
    .fil0 {fill:#ff5a3c;fill-rule:nonzero}
   ]]>
  </style>
 </defs>
 <g id="Layer_x0020_1">
  <metadata id="CorelCorpID_0Corel-Layer"/>
  <path class="fil0" d="M3912.61 658.29c8.24,16.48 -27.4,7.89 -52.33,10.24 -61,5.73 -257.64,77.2 -144.53,155.44 288.47,200.6 -162.69,348.1 -162.69,172.45 0,-20.63 10.13,-63.45 30.91,-63.45 9.77,0 -9.96,24.74 20.34,47.18 74.03,54.83 170.88,-45.96 122.83,-94.36 -20.61,-16.27 -47.18,-45.56 -79.72,-87.85 -43,68.09 -168.33,307.96 -265.18,268.23 -69.99,-28.71 -41.22,-103.02 -17.86,-168.98 -30.01,41.76 -152.13,195.23 -195.23,195.23 -89.55,0 -127.32,-156.1 47.18,-329.45 82.43,-81.89 158.35,-122.29 227.77,-121.21 35.49,0.28 115.67,74.97 73.21,99.24 -42.88,-57.16 -117.83,-7.54 -204.99,65.89 -163.11,137.41 -201.46,291.54 -126.9,236.72 64.91,-47.73 201.84,-187.02 231.05,-262.2 18.12,-46.61 114.73,-10.55 100.84,11.65 -55.32,82.43 -88.94,146.97 -100.87,193.61 -13.18,48.69 21.49,40.11 42.3,20.34 35.76,-33.98 105.02,-123.58 146.9,-193.14 46.93,-77.98 13.21,-125.91 106.86,-188.37 46.64,-31.45 94.79,-43.37 144.8,-40.67 14.91,0.8 27.11,25.49 55.32,73.48zm-1940.77 -205.27c60.93,40.63 -249.09,448.37 -268.44,545.02 -11.32,56.55 4.43,96.64 41.49,88.97 35.52,-7.34 109.61,-103.79 121.21,-92.22 -83.69,152.48 -85.14,199.61 -218.28,100.87 -75.5,-55.99 32.93,-299.65 111.17,-440.9 107.95,-194.87 -202.78,135.13 -289.86,284.71 -18.5,31.77 -73.19,43.43 99.24,-193.6 63.71,-87.84 146.73,-182.15 249.12,-282.86 33.79,-33.23 47.93,-32.14 72.71,-29.17 28.95,3.47 65.33,6.5 81.65,19.18zm-271.7 -53.69c0,105.6 -282.3,422 -293.12,631.25 -79.16,8.17 -66.38,-92.16 -53.42,-151.31 30.47,-141 201.74,-404.9 201.74,-478.32 0,-60.55 -101.05,4.66 -159.17,48.81 -245.96,189.2 -492.25,431.26 -661.07,691.45 -18.92,29.71 -123.38,10.01 -123.38,-66.7 0,-70.35 228.33,-377.7 295.23,-463.82 83.76,-107.82 187.64,-246.61 311.62,-416.36 64.87,-95.2 90.26,-154.56 -40.67,-154.56 -270.64,0 -1072.15,275.31 -1072.15,400.23 0,18.44 14.1,27.66 42.3,27.66 7.6,2.11 21.55,23.77 -24.4,16.27 -33.65,-5.49 -123.65,-60.02 -123.65,-104.12 0,-24.95 47.72,-62.37 143.17,-112.26 185.22,-94.03 1247.86,-466.42 1247.86,-128.53 0,58.53 -22.43,86.03 -65.08,144.8 -144.16,199.08 -337.54,370.59 -471.81,582.44 -10.85,16.27 -12.47,24.41 -4.88,24.41 1.08,-1.09 2.71,-2.71 4.88,-4.88 196.04,-218.01 378.8,-381.24 548.82,-489.71 82.43,-53.15 153.74,-79.72 214.48,-79.72 39.79,0 82.7,52.95 82.7,82.98zm569.89 101.52c-2.83,25.51 -65.62,29.5 -88.06,66.22 -10.53,17.24 -2.45,37.42 7.75,39.45 9.92,1.98 3.4,15.8 -4.22,14.09 -36.71,-8.26 -71.15,-41.57 -64.81,-78.9 3.75,-22.11 12.72,-23.48 41.56,-26.77 16.44,-1.88 45.79,-6.58 88.06,-14.09 8.84,-0.78 22.85,-18.73 19.73,0zm-83.98 423.16c-25.34,35 -59.33,78.65 -101.99,130.97 -67.08,74.24 -195.23,58.23 -195.23,-82.97 0,-48.81 10.85,-94.36 32.54,-136.66 -9.76,-5.42 -11.39,-12.47 -4.88,-21.15 98.19,-129.26 115.29,-197.58 219.64,-110.63 -212.61,212.61 -202.5,426.29 -89.48,328.64 36.39,-31.31 76.07,-74.5 119.06,-129.58 -15.95,-17.01 -20.31,-50.99 -16.6,-90.06 30.3,-301.63 570.86,-720.73 930.61,-720.73 197.1,0 218.38,187.26 133.41,297.73 -46.64,59.66 -92.19,107.38 -136.66,143.17 -25.41,21.28 -184.02,128.53 -204.99,128.53 -16.21,0 -12.04,-18.81 -6.51,-22.78 123.1,-60.74 210.96,-138.29 263.83,-232.65 55,-98.62 99.9,-204.99 -39.05,-204.99 -168.93,0 -342.74,73.48 -521.43,220.72 -181.95,149.41 -280.92,305.32 -297.18,467.74 -37.53,358.25 638.27,87.92 789.06,-5.42 190.31,-117.81 -141.96,242.68 -510.86,242.68 -103.04,0 -190.35,-31.45 -261.94,-94.36 -33.01,-40.35 -65.72,-71.3 -101.33,-108.19zm2178.51 -96.8c-18.96,40.88 -72.47,115.58 -101.48,153.11 -42.72,55.28 -97.06,106.7 -149.67,84.95 -71.02,-29.37 -38.81,-102.75 -15.67,-168.1 -29.97,41.7 -150.81,195.23 -195.23,195.23 -90.44,0 -126.4,-157.02 47.18,-329.45 82.43,-81.89 158.35,-122 227.77,-121.21 34.37,0.39 115.93,74.82 73.21,99.24 -42.66,-56.83 -118.05,-7.36 -204.99,65.89 -156.98,132.25 -209.67,294.19 -117.04,230.29 74.29,-51.24 190.38,-186.14 218.5,-249.33 10.76,-24.18 13.2,-28.95 43.33,-28.95 22,0 72.45,15.45 60.2,34.16 -54.37,83.05 -88.77,147.02 -100.87,193.61 -6.12,23.55 -1.48,33.59 7.2,35.67 19.99,4.78 46.25,-26.13 58.59,-39.42 26.33,-28.34 71.56,-80.75 127.81,-160.57 18.67,-26.49 32.46,-19.51 21.15,4.88z"/>
 </g>
</svg>
